<?xml version="1.0" ?><svg height="257px" version="1.1" viewBox="0 0 286 257" width="286px" xmlns="http://www.w3.org/2000/svg" xmlns:xlink="http://www.w3.org/1999/xlink"><title/><desc/><defs/><g fill="none" fill-rule="evenodd" id="Page-1" stroke="none" stroke-width="1"><g fill-rule="nonzero" id="unmute"><path d="M205.917,10.039 C202.852,8.774 199.346,10.232 198.082,13.295 C196.817,16.358 198.275,19.866 201.338,21.13 C245.026,39.166 273.255,81.361 273.255,128.627 C273.255,192.725 221.108,244.872 157.009,244.872 C153.695,244.872 151.009,247.559 151.009,250.872 C151.009,254.185 153.695,256.872 157.009,256.872 C227.724,256.872 285.255,199.342 285.255,128.627 C285.255,76.485 254.113,29.936 205.917,10.039 Z" fill="#FB4A5E" id="Shape"/><path d="M157.009,211.93 C202.943,211.93 240.313,174.56 240.313,128.627 C240.313,82.694 202.943,45.324 157.009,45.324 C153.696,45.324 151.009,48.011 151.009,51.324 C151.009,54.638 153.696,57.324 157.009,57.324 C196.326,57.324 228.313,89.31 228.313,128.627 C228.313,167.944 196.326,199.93 157.009,199.93 C153.696,199.93 151.009,202.616 151.009,205.93 C151.009,209.244 153.696,211.93 157.009,211.93 Z" fill="#FB4A5E" id="Shape"/><path d="M176.538,149.604 C174.114,151.862 173.979,155.659 176.238,158.083 C177.42,159.352 179.022,159.994 180.63,159.994 C182.094,159.994 183.562,159.461 184.718,158.384 C192.949,150.717 197.67,139.871 197.67,128.627 C197.67,106.208 179.43,87.968 157.01,87.968 C153.697,87.968 151.01,90.655 151.01,93.968 C151.01,97.281 153.697,99.968 157.01,99.968 C172.813,99.968 185.67,112.824 185.67,128.627 C185.669,136.669 182.426,144.118 176.538,149.604 Z" fill="#FB4A5E" id="Shape"/><path d="M130.79,0.84 C128.549,-0.088 125.969,0.423 124.252,2.136 L60.844,65.448 L6,65.448 C2.687,65.448 0,68.135 0,71.448 L0,185.806 C0,189.119 2.687,191.806 6,191.806 L63.326,191.806 C66.639,191.806 69.326,189.119 69.326,185.806 C69.326,182.493 66.639,179.806 63.326,179.806 L12,179.806 L12,77.448 L63.326,77.448 C64.916,77.448 66.44,76.817 67.565,75.694 L122.491,20.852 L122.491,236.403 L92.864,206.82 C90.518,204.479 86.719,204.481 84.379,206.827 C82.038,209.172 82.041,212.971 84.386,215.312 L124.253,255.118 C125.4,256.264 126.934,256.872 128.494,256.872 C129.267,256.872 130.048,256.723 130.791,256.414 C133.032,255.485 134.493,253.297 134.493,250.872 L134.493,6.382 C134.491,3.956 133.03,1.769 130.79,0.84 Z" fill="#000000" id="Shape"/></g></g></svg>