<?xml version="1.0" ?><svg height="295px" version="1.1" viewBox="0 0 295 295" width="295px" xmlns="http://www.w3.org/2000/svg" xmlns:xlink="http://www.w3.org/1999/xlink"><title/><desc/><defs/><g fill="none" fill-rule="evenodd" id="Page-1" stroke="none" stroke-width="1"><g fill-rule="nonzero" id="mute"><path d="M251.487,69.611 C248.831,71.592 248.283,75.351 250.263,78.007 C265.304,98.179 273.254,122.182 273.254,147.421 C273.254,211.519 221.107,263.667 157.009,263.667 C153.696,263.667 151.009,266.354 151.009,269.667 C151.009,272.981 153.696,275.667 157.009,275.667 C227.724,275.667 285.254,218.136 285.254,147.421 C285.254,119.577 276.481,93.094 259.884,70.834 C257.903,68.177 254.144,67.629 251.487,69.611 Z" fill="#FB4A5E" id="Shape"/><path d="M157.009,31.176 C179.122,31.176 200.629,37.407 219.206,49.196 C220.203,49.829 221.315,50.131 222.415,50.131 C224.401,50.131 226.344,49.146 227.487,47.345 C229.262,44.547 228.433,40.84 225.635,39.064 C205.132,26.053 181.402,19.176 157.008,19.176 C153.695,19.176 151.008,21.863 151.008,25.176 C151.008,28.489 153.696,31.176 157.009,31.176 Z" fill="#FB4A5E" id="Shape"/><path d="M293.085,1.757 C290.743,-0.586 286.942,-0.586 284.601,1.757 L206.147,80.21 C192.361,70.104 175.374,64.118 157.009,64.118 C153.696,64.118 151.009,66.805 151.009,70.118 C151.009,73.432 153.696,76.118 157.009,76.118 C172.06,76.118 186.028,80.818 197.547,88.81 L175.254,111.103 C169.763,108.333 163.567,106.763 157.009,106.763 C153.696,106.763 151.009,109.45 151.009,112.763 C151.009,116.076 153.696,118.763 157.009,118.763 C160.189,118.763 163.246,119.291 166.106,120.252 L76.791,209.567 L67.565,200.355 C66.44,199.232 64.916,198.601 63.326,198.601 L12,198.601 L12,96.242 L63.326,96.242 C64.916,96.242 66.44,95.611 67.565,94.488 L122.491,39.646 L122.491,136.422 C122.491,139.735 125.178,142.422 128.491,142.422 C131.804,142.422 134.491,139.735 134.491,136.422 L134.491,25.176 C134.491,22.75 133.03,20.563 130.789,19.634 C128.547,18.706 125.968,19.217 124.251,20.93 L60.844,84.242 L6,84.242 C2.687,84.242 0,86.929 0,90.242 L0,204.6 C0,207.913 2.687,210.6 6,210.6 L60.844,210.6 L68.306,218.051 L1.758,284.6 C-0.585,286.943 -0.585,290.742 1.758,293.085 C2.929,294.256 4.465,294.842 6.001,294.842 C7.537,294.842 9.072,294.256 10.244,293.085 L76.799,226.53 L124.253,273.912 C125.4,275.058 126.934,275.666 128.494,275.666 C129.267,275.666 130.048,275.517 130.791,275.208 C133.032,274.279 134.493,272.091 134.493,269.666 L134.493,195.42 C134.493,192.107 131.806,189.42 128.493,189.42 C125.18,189.42 122.493,192.107 122.493,195.42 L122.493,255.196 L85.285,218.044 L176.702,126.626 C182.219,131.853 185.67,139.239 185.67,147.42 C185.67,163.223 172.814,176.08 157.011,176.08 C153.698,176.08 151.011,178.767 151.011,182.08 C151.011,185.393 153.698,188.08 157.011,188.08 C179.431,188.08 197.67,169.84 197.67,147.42 C197.67,135.93 192.872,125.546 185.183,118.145 L206.842,96.486 C220.079,109.439 228.315,127.482 228.315,147.42 C228.315,186.737 196.329,218.723 157.011,218.723 C153.698,218.723 151.011,221.409 151.011,224.723 C151.011,228.036 153.698,230.723 157.011,230.723 C202.945,230.723 240.315,193.353 240.315,147.42 C240.315,124.173 230.733,103.13 215.323,88.005 L293.086,10.242 C295.428,7.899 295.428,4.1 293.085,1.757 Z" fill="#000000" id="Shape"/></g></g></svg>